<svg id="Layer_1" data-name="Layer 1" xmlns="http://www.w3.org/2000/svg" viewBox="0 0 500 500"><defs><style>.cls-1{fill:#191717;}</style></defs><title>Artboard 1</title><path class="cls-1" d="M132.55,207,115.06,339c-.42,3.17,4.57,3.14,5,0l17.49-132c.42-3.17-4.58-3.14-5,0Z"/><path class="cls-1" d="M46.91,249.78a402.34,402.34,0,0,1,183.48-63.15c3.18-.28,3.21-5.27,0-5a407.48,407.48,0,0,0-186,63.83c-2.69,1.75-.19,6.07,2.52,4.31Z"/><path class="cls-1" d="M312.49,199.58c-12.23-16.43-36-17-51.45-4.76s-25,36.91-16.86,55.85c9.89,23,36.63,13.4,54.64,22.68,10.49,5.41,16.56,17.34,16.71,28.9.17,12.81-6.56,24.89-15.74,33.46-21,19.64-59,21.57-73.31-7.13-1.42-2.88-5.73-.35-4.31,2.52,10.24,20.6,34.76,28.65,56.16,22.45,21-6.09,39.77-24.55,42-47a40.26,40.26,0,0,0-8.08-28.26c-6.37-8.22-15.3-12.07-25.4-13.54-11-1.59-24.38-.62-33.06-8.76s-8.72-22.35-5.49-33.1c3.8-12.65,12.57-24.85,25.27-29.66,11.88-4.5,26.81-1.65,34.61,8.83,1.9,2.54,6.24.06,4.31-2.52Z"/><path class="cls-1" d="M360.8,253.61l-1-1.28-3.53,3.53,6.76,6.5c1.83,1.76,5.27,4,6.07,6.48,1,3.05,5.81,1.74,4.82-1.32s-3.52-5-5.77-7.16l-8.35-8c-2.39-2.29-5.45,1.07-3.53,3.53l1,1.28c2,2.53,5.48-1,3.53-3.53Z"/><path class="cls-1" d="M364.06,251.94a118.14,118.14,0,0,1-5.38,14.75c-1.3,2.91,3,5.45,4.31,2.52a126.82,126.82,0,0,0,5.88-15.94c.9-3.09-3.91-4.41-4.81-1.33Z"/><path class="cls-1" d="M397.9,255.46a118.58,118.58,0,0,0,18.65,15.39c2.68,1.79,5.18-2.54,2.52-4.31a112.24,112.24,0,0,1-17.64-14.61c-2.26-2.29-5.79,1.24-3.53,3.53Z"/><path class="cls-1" d="M408.47,250.68c-1.26,3.33-2.58,6.64-4,9.91-.57,1.29-1.15,2.59-1.75,3.87-.4.86-.8,1.71-1.21,2.56-1,1.48-.87,1.67.28.6l3.07,1.74-.08-.29L403,272.14l.21-.06c3.07-.92,1.76-5.74-1.33-4.81l-.2.06a2.54,2.54,0,0,0-1.75,3.07l.09.29a2.52,2.52,0,0,0,3.07,1.74c2.95-1,3.93-5.44,5.09-8q2.73-6.12,5.09-12.39c1.14-3-3.69-4.31-4.81-1.33Z"/><path class="cls-1" d="M381.88,291.42a285.5,285.5,0,0,1,39.35-5.94c3.18-.26,3.21-5.25,0-5a295.46,295.46,0,0,0-40.67,6.12c-3.14.7-1.81,5.51,1.32,4.81Z"/><path class="cls-1" d="M417.08,219.53c-32.28-13.44-73.68,2.28-87.65,34.68s1.45,74.16,34.09,88.47c35.8,15.69,77.81-.69,95.42-34.88,14.81-28.73,12.3-67-14.64-87.76-27.4-21.09-71.6-19.48-93.4,8.86-1.95,2.54,2.38,5,4.31,2.51,17.86-23.21,52.88-26,77.59-12.87,27.92,14.88,36,48.07,26.12,76.73-11.42,33.05-44.81,54-79.72,47.11-34.25-6.74-56-41.84-48.55-75.76,8.08-36.63,51.22-56.38,85.1-42.28,3,1.23,4.25-3.6,1.33-4.81Z"/><path class="cls-1" d="M400.28,286.14c-1,7.35,7.05,16.14,14.54,15.93,9.42-.26,12.68-10.56,10.68-18.28-.81-3.11-5.63-1.79-4.82,1.33,1.18,4.53.13,11.61-5.86,12-3.82.23-10.29-5.6-9.73-9.61.44-3.15-4.37-4.5-4.81-1.33Z"/><path class="cls-1" d="M412.57,293.13a3.47,3.47,0,0,1,1.48,3c0,3.21,5,3.22,5,0a8.36,8.36,0,0,0-2.95-6.5,2.57,2.57,0,0,0-3.53,0,2.52,2.52,0,0,0,0,3.53Z"/><path class="cls-1" d="M144.81,281.86l52.47,49.7c2.33,2.2,5.87-1.32,3.53-3.53l-52.48-49.7c-2.33-2.21-5.86,1.31-3.52,3.53Z"/><path class="cls-1" d="M222.4,288.31q-30.12,53.43-56.16,109c-1.35,2.9,2.95,5.43,4.31,2.52q26-55.54,56.16-109c1.58-2.8-2.73-5.32-4.31-2.51Z"/></svg>